HIERARCHY
ROOT Hips
{
	OFFSET 0.00000 0.00000 0.00000
	CHANNELS 6 Xposition Yposition Zposition Zrotation Yrotation Xrotation 
	JOINT LHipJoint
	{
		OFFSET 0 0 0
		CHANNELS 3 Zrotation Yrotation Xrotation
		JOINT LeftUpLeg
		{
			OFFSET 1.64577 -1.42384 0.94276
			CHANNELS 3 Zrotation Yrotation Xrotation
			JOINT LeftLeg
			{
				OFFSET 2.11538 -5.81197 0.00000
				CHANNELS 3 Zrotation Yrotation Xrotation
				JOINT LeftFoot
				{
					OFFSET 2.36541 -6.49893 0.00000
					CHANNELS 3 Zrotation Yrotation Xrotation
					JOINT LeftToeBase
					{
						OFFSET 0.17759 -0.48793 1.73865
						CHANNELS 3 Zrotation Yrotation Xrotation
						End Site
						{
							OFFSET 0.00000 -0.00000 0.91205
						}
					}
				}
			}
		}
	}
	JOINT RHipJoint
	{
		OFFSET 0 0 0
		CHANNELS 3 Zrotation Yrotation Xrotation
		JOINT RightUpLeg
		{
			OFFSET -1.43750 -1.42384 0.94276
			CHANNELS 3 Zrotation Yrotation Xrotation
			JOINT RightLeg
			{
				OFFSET -2.10480 -5.78291 0.00000
				CHANNELS 3 Zrotation Yrotation Xrotation
				JOINT RightFoot
				{
					OFFSET -2.34880 -6.45329 0.00000
					CHANNELS 3 Zrotation Yrotation Xrotation
					JOINT RightToeBase
					{
						OFFSET -0.22842 -0.62757 1.80469
						CHANNELS 3 Zrotation Yrotation Xrotation
						End Site
						{
							OFFSET -0.00000 -0.00000 0.95886
						}
					}
				}
			}
		}
	}
	JOINT LowerBack
	{
		OFFSET 0 0 0
		CHANNELS 3 Zrotation Yrotation Xrotation
		JOINT Spine
		{
			OFFSET 0.06217 1.93758 -0.49272
			CHANNELS 3 Zrotation Yrotation Xrotation
			JOINT Spine1
			{
				OFFSET -0.03114 2.03621 -0.05830
				CHANNELS 3 Zrotation Yrotation Xrotation
				JOINT Neck
				{
					OFFSET 0 0 0
					CHANNELS 3 Zrotation Yrotation Xrotation
					JOINT Neck1
					{
						OFFSET 0.04421 1.41010 0.26562
						CHANNELS 3 Zrotation Yrotation Xrotation
						JOINT Head
						{
							OFFSET -0.13407 1.43847 0.06181
							CHANNELS 3 Zrotation Yrotation Xrotation
							End Site
							{
								OFFSET -0.04980 1.45844 -0.00689
							}
						}
					}
				}
				JOINT LeftShoulder
				{
					OFFSET 0 0 0
					CHANNELS 3 Zrotation Yrotation Xrotation
					JOINT LeftArm
					{
						OFFSET 2.18382 1.47753 -0.35694
						CHANNELS 3 Zrotation Yrotation Xrotation
						JOINT LeftForeArm
						{
							OFFSET 5.05460 -0.00000 0.00000
							CHANNELS 3 Zrotation Yrotation Xrotation
							JOINT LeftHand
							{
								OFFSET 3.39013 -0.00000 0.00000
								CHANNELS 3 Zrotation Yrotation Xrotation
								JOINT LeftFingerBase
								{
									OFFSET 0 0 0
									CHANNELS 3 Zrotation Yrotation Xrotation
									JOINT LeftHandIndex1
									{
										OFFSET 0.57242 -0.00000 -0.00000
										CHANNELS 3 Zrotation Yrotation Xrotation
										End Site
										{
											OFFSET 0.46150 -0.00000 -0.00000
										}
									}
								}
								JOINT LThumb
								{
									OFFSET 0 0 0
									CHANNELS 3 Zrotation Yrotation Xrotation
									End Site
									{
										OFFSET 0.46855 -0.00000 0.46855
									}
								}
							}
						}
					}
				}
				JOINT RightShoulder
				{
					OFFSET 0 0 0
					CHANNELS 3 Zrotation Yrotation Xrotation
					JOINT RightArm
					{
						OFFSET -2.06033 1.72839 -0.47437
						CHANNELS 3 Zrotation Yrotation Xrotation
						JOINT RightForeArm
						{
							OFFSET -5.07010 -0.00000 0.00000
							CHANNELS 3 Zrotation Yrotation Xrotation
							JOINT RightHand
							{
								OFFSET -3.14957 -0.00000 -0.00000
								CHANNELS 3 Zrotation Yrotation Xrotation
								JOINT RightFingerBase
								{
									OFFSET 0 0 0
									CHANNELS 3 Zrotation Yrotation Xrotation
									JOINT RightHandIndex1
									{
										OFFSET -0.71819 -0.00000 -0.00000
										CHANNELS 3 Zrotation Yrotation Xrotation
										End Site
										{
											OFFSET -0.57902 -0.00000 -0.00000
										}
									}
								}
								JOINT RThumb
								{
									OFFSET 0 0 0
									CHANNELS 3 Zrotation Yrotation Xrotation
									End Site
									{
										OFFSET -0.58786 -0.00000 0.58786
									}
								}
							}
						}
					}
				}
			}
		}
	}
}
MOTION
Frames: 8
Frame Time: 0.105263
0.00 0.00 0.00 0 0 0 0 0 0 -21 0 0 0 0 0 0 0 0 0 0 0 0 0 0 21 0 0 0 0 0 0 0 0 0 0 0 0 0 0 0 0 0 0 0 0 0 0 -16 0 0 21 0 0 11 0 0 0 -8 0 0 0 0 0 0 0 0 0 0 0 0 0 0 0 0 0 0 0 0 8 0 0 0 0 0 0 0 0 0 0 0 0 0 0 0 0 0
0.00 0.00 0.00 -135.0330 -87.1988 134.9090 0.0000 0.0000 0.0000 -25.3776 -7.5741 6.0286 3.5394 11.5209 34.0575 1.9942 10.1967 -31.9558 1.1574 -6.8302 -19.2132 0.0000 0.0000 0.0000 25.9692 18.1656 -16.5612 -4.3859 -12.6569 38.0975 -1.7810 -12.0836 -32.0324 -1.8544 8.5560 -24.4159 0.6640 1.3823 6.4994 -0.8002 1.7414 4.5634 -1.2889 0.8414 1.1049 9.7831 1.9581 -9.6083 -2.9475 1.3435 17.5882 -2.4650 0.9503 7.0722 -0.0000 0.0000 0.0000 -83.9993 -2.2673 45.9082 25.2462 -36.4545 -8.4357 -0.0000 0.0000 -7.3319 22.1928 7.6369 3.1032 -7.1250 0.0000 -0.0000 -3.9783 38.1918 0.6682 -0.0000 0.0000 0.0000 92.5898 -0.9813 20.3334 -15.4758 24.8048 -3.4231 0.0000 -0.0000 -15.2572 -16.3706 1.0306 -0.3027 7.1250 -0.0000 -0.0000 7.9357 -28.8670 3.1459
0.00 0.00 0.00 -128.6680 -85.1591 128.3570 0.0000 0.0000 0.0000 -21.2768 -7.5002 -4.6622 8.3263 16.3541 53.7296 0.6235 7.7008 -19.6606 1.0560 -6.5340 -18.3418 0.0000 0.0000 0.0000 29.4684 15.6753 -11.9972 -3.7200 -11.7781 34.9515 -1.8223 -11.7938 -32.0625 -2.4053 9.6636 -27.8941 3.2234 1.9123 7.0702 -0.5134 2.5745 4.7225 -2.4864 1.3083 1.0891 9.5523 1.8206 -9.4366 -2.6260 1.1515 17.5544 -2.3394 0.8696 7.0156 0.0000 -0.0000 0.0000 -82.8525 -0.3115 42.4653 22.7960 -33.8650 -7.0243 -0.0000 0.0000 -6.1386 24.3728 10.0884 4.5374 -7.1250 0.0000 -0.0000 -2.3470 41.0209 0.2305 0.0000 -0.0000 0.0000 92.6767 0.1854 20.5520 -15.1236 24.3180 -3.2767 0.0000 -0.0000 -14.3145 -16.5491 0.6870 -0.2041 7.1250 -0.0000 -0.0000 7.8233 -29.2225 3.0339
0.00 0.00 0.00 -144.0130 -84.4193 141.7750 0.0000 0.0000 0.0000 -16.6788 -16.8108 -27.0641 7.0623 15.3842 49.1097 0.5264 12.0215 -22.8361 0.1005 -2.0443 -5.6281 0.0000 0.0000 0.0000 33.8839 8.1992 13.6923 -0.8369 -5.8359 16.3089 -1.8812 -14.1454 -34.2317 -1.9866 8.8381 -25.2903 2.8297 3.2071 8.2069 -1.0273 4.2316 5.6518 -2.9181 2.1313 1.5558 7.6178 1.5696 -9.6662 -0.4254 0.6288 19.0006 -1.3596 0.6966 7.4852 -0.0000 0.0000 0.0000 -83.2122 7.5812 11.5043 11.5607 -19.1425 -1.9558 -0.0000 -0.0000 14.5328 20.1716 9.2816 3.3909 -7.1250 0.0000 -0.0000 -5.9243 39.7890 0.7640 -0.0000 0.0000 0.0000 92.0405 3.7462 24.9308 -15.9069 25.3943 -3.6059 0.0000 -0.0000 -15.3182 -16.3601 1.5847 -0.4651 7.1250 -0.0000 -0.0000 7.9033 -28.2951 3.2410
0.00 0.00 0.00 -154.4010 -84.4026 151.8930 0.0000 0.0000 0.0000 -19.1271 -20.6430 -18.3742 3.5561 11.5451 34.1411 0.3944 11.2983 -20.7875 0.0014 -0.2413 -0.6631 0.0000 0.0000 0.0000 27.5549 -2.7926 16.2505 -2.1435 -9.1589 26.2936 -0.3123 -8.9956 -17.3973 -3.5481 11.5335 -34.1011 0.8052 3.7817 5.8126 -2.2605 4.9159 5.1916 -2.9504 2.4542 2.3794 6.7371 1.4313 -9.5455 1.3249 0.1312 20.5201 -0.6925 0.5661 7.9513 0.0000 0.0000 0.0000 -84.1203 6.6658 2.3827 10.6781 -17.7932 -1.6762 -0.0000 -0.0000 15.8732 18.8062 8.8460 2.9978 -7.1250 0.0000 -0.0000 -7.0394 39.2236 1.0078 0.0000 0.0000 0.0000 92.2097 1.6019 26.8624 -17.0978 26.9865 -4.1316 0.0000 -0.0000 -16.0943 -15.5259 1.2972 -0.3604 7.1250 -0.0000 -0.0000 8.5681 -28.5910 3.4584
0.00 0.00 0.00 -175.3530 -85.0252 172.6570 0.0000 0.0000 0.0000 -23.2616 -15.9828 -14.3250 3.2116 11.0299 32.3809 0.4791 9.6443 -19.9426 0.0060 -0.5010 -1.3767 0.0000 0.0000 0.0000 23.8419 -0.9916 4.5348 -6.9284 -15.2713 48.6031 0.2234 -10.3425 -10.3046 -3.3146 11.1877 -32.9156 -1.5982 3.5296 6.0515 -2.8540 4.4610 5.0489 -2.2359 2.1537 1.9322 6.8110 1.7745 -9.2452 1.2064 0.5988 20.9810 -0.7016 0.7822 8.0655 0.0000 -0.0000 0.0000 -84.9321 4.2387 8.3003 12.0197 -19.8342 -2.1090 -0.0000 -0.0000 10.5436 19.3743 10.4756 3.6583 -7.1250 0.0000 -0.0000 -6.8044 40.9750 0.6790 0.0000 -0.0000 0.0000 92.0199 1.8771 26.6027 -16.6802 26.4342 -3.9439 0.0000 -0.0000 -15.3687 -15.5453 0.7594 -0.2112 7.1250 -0.0000 -0.0000 8.5970 -29.1430 3.3563
0.00 0.00 0.00 -264.3160 -90.5695 262.1850 0.0000 0.0000 0.0000 -22.5000 -0.0537 -6.2306 10.3485 17.6012 60.6468 0.0146 -1.2808 -2.1902 1.3899 -7.4589 -21.0822 0.0000 0.0000 0.0000 26.3979 17.2376 -16.5164 -2.7496 -10.2782 29.8823 -0.6283 -13.9758 -25.7776 -0.8823 5.9880 -16.7495 0.6326 0.8583 5.1392 -0.0017 1.0329 4.9733 -0.3898 0.4801 2.2485 5.8278 2.1994 -9.1737 -1.4723 1.8566 23.2908 -1.3214 1.0488 8.8653 -0.0000 0.0000 0.0000 -84.9593 -4.5474 32.5133 19.5078 -30.0447 -5.2827 -0.0000 -0.0000 0.7389 18.6831 13.9511 4.6608 -7.1250 0.0000 -0.0000 -8.0941 44.5217 0.0962 -0.0000 0.0000 0.0000 89.1843 -0.5429 26.0857 -16.3977 26.0569 -3.8190 0.0000 -0.0000 -14.0410 -15.0279 -0.2116 0.0568 7.1250 -0.0000 -0.0000 9.0871 -30.1330 3.3349
0.00 0.00 0.00 -289.2320 -93.2393 286.1870 0.0000 0.0000 0.0000 -17.2289 -4.7735 -21.2873 17.9827 19.9022 84.0926 0.0027 0.8573 -1.6451 0.8040 -5.7225 -15.9814 0.0000 0.0000 0.0000 30.7134 13.3048 -10.9781 -2.2634 -9.3945 27.0372 -0.7108 -12.4223 -24.8483 -1.0481 6.5102 -18.2720 3.6980 1.2531 6.5203 1.0078 1.6273 5.6536 -1.1052 0.8336 2.2684 5.9550 2.0334 -8.9999 -1.9432 1.7585 22.5463 -1.5076 0.9717 8.5765 0.0000 -0.0000 0.0000 -85.4118 -3.8372 28.1447 15.9175 -25.4086 -3.6105 -0.0000 -0.0000 4.7237 17.7909 13.1253 4.1677 -7.1250 0.0000 -0.0000 -8.7182 43.5680 0.3106 0.0000 -0.0000 0.0000 88.2240 0.6189 26.5890 -16.3399 25.9794 -3.7936 0.0000 -0.0000 -15.4863 -16.1180 0.0020 -0.0006 7.1250 -0.0000 -0.0000 8.2150 -29.9261 3.0495
